<svg xmlns="http://www.w3.org/2000/svg" width="512" height="512" style="overflow:visible" class="fl-svgdocument" data-bbox="39.281962980575145 175.01878152940438 433.4360740388497 121.14381970153667"><path data-type="rect" data-x="0" data-y="0" data-width="100" data-height="100" d="M0 163.033h512v147.534H0Z" data-uid="o_en9hmkae2_77" fill="#3b474a"/><g fill="#fecf16" data-uid="o_en9hmkae2_6"><path d="M121.4 258.79H78.305c-.766 0-1.437-.67-1.437-1.437V214.26c0-.767.67-1.437 1.437-1.437h43.19c.765 0 1.436.67 1.436 1.437v43.189c-.096.766-.67 1.34-1.533 1.34zm-41.658-2.873h40.22v-40.221h-40.22v40.22z" fill="#16bffe" data-uid="o_en9hmkae2_7"/><path d="M100.224 210.95c-.766 0-1.437-.67-1.437-1.436v-26.24c0-1.723-1.436-3.16-3.16-3.16h-7.852c-.767 0-1.437-.67-1.437-1.436s.575-1.437 1.437-1.437h7.852a6.008 6.008 0 0 1 6.033 6.034v26.239c0 .862-.67 1.436-1.436 1.436z" data-uid="o_en9hmkae2_8"/><path d="M110.722 211.389c-.766 0-1.436-.67-1.436-1.437v-16.567c0-.766.67-1.436 1.436-1.436s1.437.67 1.437 1.436v16.663c0 .766-.575 1.34-1.437 1.34z" data-uid="o_en9hmkae2_9"/><path d="M90.655 211.389c-.766 0-1.436-.67-1.436-1.437v-16.567c0-.766.67-1.436 1.436-1.436s1.436.67 1.436 1.436v16.663c0 .766-.574 1.34-1.436 1.34z" data-uid="o_en9hmkae2_10"/><path d="M42.724 248.484c-.766 0-1.436-.67-1.436-1.437v-7.852a6.008 6.008 0 0 1 6.033-6.033h26.24c.765 0 1.436.67 1.436 1.436s-.67 1.437-1.437 1.437H47.32c-1.723 0-3.16 1.436-3.16 3.16v7.852c0 .862-.67 1.437-1.436 1.437z" data-uid="o_en9hmkae2_11"/><path d="M73.999 225.537H57.43c-.766 0-1.436-.67-1.436-1.437s.67-1.436 1.436-1.436h16.663c.766 0 1.437.67 1.437 1.436s-.766 1.437-1.532 1.437z" data-uid="o_en9hmkae2_12"/><path d="M73.999 245.604H57.43c-.766 0-1.436-.67-1.436-1.437s.67-1.436 1.436-1.436h16.663c.766 0 1.437.67 1.437 1.436s-.766 1.437-1.532 1.437z" data-uid="o_en9hmkae2_13"/><path d="M152.575 237.614h-26.239c-.766 0-1.436-.67-1.436-1.436s.67-1.437 1.436-1.437h26.24c1.723 0 3.16-1.436 3.16-3.16v-7.852c0-.767.67-1.437 1.436-1.437s1.436.67 1.436 1.437v7.852c0 3.256-2.68 6.033-6.033 6.033z" data-uid="o_en9hmkae2_14"/><path d="M143.397 248.112H126.83c-.766 0-1.436-.67-1.436-1.437s.67-1.436 1.436-1.436h16.663c.766 0 1.436.67 1.436 1.436s-.67 1.437-1.532 1.437z" data-uid="o_en9hmkae2_15"/><path d="M143.397 228.045H126.83c-.766 0-1.436-.67-1.436-1.436s.67-1.437 1.436-1.437h16.663c.766 0 1.436.67 1.436 1.437s-.67 1.436-1.532 1.436z" data-uid="o_en9hmkae2_16"/><path d="M111.094 293.726h-7.853a6.008 6.008 0 0 1-6.033-6.033v-26.24c0-.765.67-1.436 1.437-1.436s1.436.67 1.436 1.437v26.239c0 1.724 1.437 3.16 3.16 3.16h7.853c.766 0 1.436.67 1.436 1.437s-.574 1.436-1.436 1.436z" data-uid="o_en9hmkae2_17"/><path d="M88.983 279.114c-.766 0-1.437-.67-1.437-1.436V261.11c0-.766.67-1.437 1.437-1.437s1.436.67 1.436 1.437v16.663c0 .766-.67 1.34-1.436 1.34z" data-uid="o_en9hmkae2_18"/><path d="M109.05 279.114c-.767 0-1.437-.67-1.437-1.436V261.11c0-.766.67-1.437 1.436-1.437s1.437.67 1.437 1.437v16.663c0 .766-.67 1.34-1.437 1.34z" data-uid="o_en9hmkae2_19"/><path d="M100.024 223.095c-13.983 0-22.27 13.12-22.27 13.12s8.287 13.12 22.27 13.12c13.638 0 21.924-13.12 21.924-13.12s-8.286-13.12-21.924-13.12zm-.173 4.834c4.592 0 8.287 3.694 8.287 8.286s-3.695 8.286-8.287 8.286-8.286-3.694-8.286-8.286 3.694-8.286 8.286-8.286zm0 4.143c-2.278 0-4.143 1.864-4.143 4.143s1.865 4.143 4.143 4.143 4.143-1.864 4.143-4.143c0-.656-.133-1.238-.41-1.791-.241.276-.591.41-.97.41-.76 0-1.382-.621-1.382-1.381 0-.38.134-.73.41-.971a3.903 3.903 0 0 0-1.79-.41z" data-uid="o_en9hmkae2_20"/></g><path d="M142.682 295.55H57.025c-9.447 0-17.131-7.684-17.131-17.13v-85.658c0-9.447 7.684-17.131 17.131-17.131h85.657c9.447 0 17.132 7.684 17.132 17.131v85.657c0 9.447-7.685 17.132-17.132 17.132zM57.025 180.526c-6.747 0-12.237 5.49-12.237 12.237v85.657c0 6.748 5.49 12.237 12.237 12.237h85.657c6.748 0 12.237-5.49 12.237-12.237v-85.657c0-6.747-5.49-12.237-12.237-12.237H57.025z" fill="#fecf16" data-uid="o_en9hmkae2_21"/><path fill="#fecf16" font-size="100" letter-spacing="0" font-family="Fjalla One" data-uid="o_en9hmkae2_22" d="M189.624 241.169q-.988 0-2.131-.156-1.144-.161-2.287-.68-1.144-.514-2.187-1.461-1.048-.947-1.844-2.499-.8-1.552-1.28-3.824-.483-2.277-.483-5.425v-14.882q0-3.174.494-5.425.494-2.247 1.305-3.789.81-1.536 1.869-2.443 1.058-.912 2.191-1.39 1.129-.48 2.247-.63 1.118-.146 2.08-.146 2.51 0 4.192.7 1.688.7 2.71 1.92 1.018 1.218 1.451 2.84.428 1.623.428 3.441 0 1.355-.136 2.5-.136 1.143-.403 2.523h-5.168v-2.141q0-3.471-.761-5.189-.76-1.723-2.237-1.723-.887 0-1.552.343-.664.342-1.108 1.168-.443.827-.675 2.177-.232 1.355-.232 3.37v19.189q0 1.964.182 3.27.186 1.304.604 2.09.418.786 1.093 1.118.676.333 1.638.333.614 0 1.179-.282.564-.282.997-.887.428-.6.69-1.521.257-.927.257-2.182v-4.105h5.829v3.884q0 5.068-2.313 7.48-2.312 2.409-6.64 2.434Zm12.298 6.151q1.4.196 2.585-.086 1.179-.282 2.025-1.073.851-.786 1.355-2.075.504-1.29.58-3.088l-8.02-34.07h6.322l3.566 18.745 1.033 6.468h.197l.715-6.468 2.877-18.746h6.125l-7.133 35.129q-.468 2.433-1.194 4.256-.725 1.82-1.798 3.023-1.068 1.21-2.544 1.809-1.477.604-3.446.604-1.597 0-3.27-.614l.025-3.814Zm23.37-6.519v-44.745h6.22v9.028l-.196 4.478.026.025q.418-.59.972-1.133.554-.54 1.254-.972.7-.429 1.547-.676.851-.246 1.859-.246.519 0 1.244.1.726.096 1.501.49.771.392 1.547 1.168.776.776 1.38 2.13.6 1.35.983 3.371.383 2.015.383 4.892v10.257q0 2.881-.383 4.896t-.998 3.38q-.614 1.366-1.4 2.157-.786.786-1.602 1.178-.811.393-1.572.504-.76.111-1.33.111-1.179 0-2.126-.292-.947-.297-1.672-.801-.726-.504-1.28-1.144-.554-.64-.972-1.304l-.514 3.148h-4.872Zm6.22-27.425v20.564q.197.463.48.907.282.443.654.775.368.333.862.544.489.207 1.103.207.69 0 1.255-.257.569-.257.987-.937.418-.675.65-1.879.232-1.21.232-3.098v-12.967q0-1.895-.232-3.089-.232-1.188-.64-1.879-.403-.69-.972-.937-.565-.241-1.255-.241-1.153 0-1.904.675-.75.675-1.22 1.612Zm26.273 27.793q-2.191 0-3.874-.811-1.687-.811-2.841-2.534-1.159-1.723-1.748-4.413-.59-2.695-.59-6.484v-6.393q0-3.224.479-5.526.479-2.297 1.254-3.859.776-1.562 1.799-2.474 1.018-.911 2.1-1.39 1.084-.479 2.152-.615 1.073-.136 1.98-.136 1.672 0 3.224.504 1.551.504 2.73 1.723 1.179 1.22 1.884 3.26.7 2.04.7 5.093 0 1.032-.06 2.09-.065 1.058-.161 2.076-.1 1.023-.257 1.985-.161.957-.333 1.768H254.98v3.446q0 2.211.172 3.723.176 1.516.579 2.438.408.922 1.108 1.33.7.403 1.758.403.565 0 1.109-.232.539-.237.947-.776.403-.544.65-1.44.246-.897.246-2.227v-1.058h5.19v1.305q0 4.82-2.298 7.022-2.302 2.202-6.655 2.202Zm-2.806-20.317h6.247q.025-.272.05-.726.026-.453.04-.947.01-.494.01-.972v-.821q0-3.35-.785-4.821-.791-1.476-2.338-1.476-.81 0-1.425.377-.615.383-1.013 1.28-.393.897-.59 2.373-.196 1.476-.196 3.667v2.066Zm17.32 19.95v-33.875h4.549l.544 3.446q1.033-1.92 2.373-2.876 1.34-.963 2.74-.963 2.68 0 3.96 1.648 1.28 1.652 1.28 4.947 0 .418-.061.997-.06.575-.171 1.204-.111.625-.272 1.255-.162.624-.333 1.143h-4.327v-3.148q0-1.033-.136-1.698t-.358-1.068q-.222-.408-.514-.57-.297-.155-.64-.155-.74 0-1.365.478-.63.479-1.048 1.34v27.894H272.3Z"/><path fill="#fecf16" font-size="100" letter-spacing="0" font-family="Fjalla One" data-uid="o_en9hmkae2_23" d="M300.667 240.801v-42.015h6.912q1.178 0 2.594.101 1.416.096 2.831.479 1.41.383 2.73 1.143 1.315.761 2.333 2.091 1.023 1.33 1.637 3.335.615 2.005.615 4.856v1.058q0 4.796-1.375 7.809-1.38 3.012-4.06 4.342l6.74 16.801h-6.74l-5.583-15.718h-2.387v15.718h-6.247Zm6.247-20.317h.962q1.672 0 2.826-.368 1.159-.373 1.869-1.244.715-.872 1.033-2.312.322-1.441.322-3.557v-3.32q0-1.622-.297-2.8-.292-1.185-.998-1.946-.7-.765-1.854-1.133-1.158-.368-2.901-.368h-.962v17.048Zm27.305 20.685q-2.191 0-3.874-.811-1.688-.811-2.841-2.534-1.159-1.723-1.748-4.413-.59-2.695-.59-6.484v-6.393q0-3.224.479-5.526.478-2.297 1.254-3.859.776-1.562 1.799-2.474 1.017-.911 2.1-1.39 1.084-.479 2.152-.615 1.073-.136 1.98-.136 1.672 0 3.223.504 1.552.504 2.73 1.723 1.18 1.22 1.885 3.26.7 2.04.7 5.093 0 1.032-.06 2.09-.066 1.058-.161 2.076-.101 1.023-.257 1.985-.161.957-.333 1.768h-11.244v3.446q0 2.211.171 3.723.177 1.516.58 2.438.408.922 1.108 1.33.7.403 1.758.403.564 0 1.108-.232.54-.237.947-.776.404-.544.65-1.44.247-.897.247-2.227v-1.058h5.19v1.305q0 4.82-2.298 7.022-2.302 2.202-6.655 2.202Zm-2.806-20.317h6.247q.025-.272.05-.726.025-.453.04-.947.01-.494.01-.972v-.821q0-3.35-.785-4.821-.791-1.476-2.338-1.476-.81 0-1.426.377-.614.383-1.012 1.28-.393.897-.59 2.373-.196 1.476-.196 3.667v2.066Zm15.99 12.866q0-1.108.211-2.14.207-1.034.403-1.648h4.378q0 1.844.186 3.088.187 1.24.605 1.98.418.735 1.118 1.058.7.317 1.708.317 1.4 0 2.04-.786.64-.786.64-1.819 0-.544-.146-1.037-.146-.489-.418-.993t-.665-1.022q-.393-.514-.887-1.134l-4.549-5.36q-.886-1.108-1.708-2.252-.826-1.143-1.45-2.363-.63-1.214-1.013-2.544-.378-1.33-.378-2.806 0-1.964.675-3.415t1.819-2.413q1.143-.958 2.645-1.426 1.5-.469 3.173-.469 1.844 0 3.32.444 1.476.443 2.534 1.33 1.058.886 1.627 2.201.565 1.315.565 3.063 0 1.179-.212 2.287-.206 1.109-.403 1.895h-4.307q-.025-1.673-.146-2.927-.121-1.255-.454-2.081-.332-.821-.912-1.24-.579-.417-1.51-.417-.812 0-1.356.256-.54.257-.872.676-.332.418-.468.937-.136.513-.136 1.058 0 1.178.564 2.186.57 1.007 1.501 2.191l4.973 5.829q.539.665 1.254 1.612.71.947 1.35 2.09.64 1.144 1.083 2.494.444 1.356.444 2.832 0 1.793-.565 3.259-.569 1.46-1.672 2.499-1.108 1.032-2.72 1.597-1.613.564-3.678.564-1.698 0-3.2-.378-1.5-.383-2.604-1.254-1.108-.877-1.748-2.303-.64-1.425-.64-3.516Zm29.888 7.45q-2.192 0-3.874-.81-1.688-.811-2.842-2.534-1.158-1.723-1.748-4.413-.59-2.695-.59-6.484v-6.393q0-3.224.48-5.526.478-2.297 1.254-3.859.776-1.562 1.798-2.474 1.018-.911 2.101-1.39 1.083-.479 2.151-.615 1.073-.136 1.98-.136 1.673 0 3.224.504 1.552.504 2.73 1.723 1.18 1.22 1.885 3.26.7 2.04.7 5.093 0 1.032-.06 2.09-.066 1.058-.162 2.076-.1 1.023-.257 1.985-.16.957-.332 1.768h-11.244v3.446q0 2.211.171 3.723.176 1.516.58 2.438.407.922 1.108 1.33.7.403 1.758.403.564 0 1.108-.232.54-.237.947-.776.403-.544.65-1.44.247-.897.247-2.227v-1.058h5.189v1.305q0 4.82-2.297 7.022-2.303 2.202-6.655 2.202Zm-2.806-20.316h6.246q.026-.272.05-.726.026-.453.041-.947.01-.494.01-.972v-.821q0-3.35-.786-4.821-.79-1.476-2.337-1.476-.811 0-1.426.377-.614.383-1.012 1.28-.393.897-.59 2.373-.196 1.476-.196 3.667v2.066Zm21.994 20.317q-1.577 0-2.796-.625-1.214-.63-2.05-1.713-.836-1.078-1.27-2.569-.428-1.486-.428-3.234 0-2.09.514-3.713.519-1.627 1.516-2.927.993-1.305 2.469-2.378 1.476-1.068 3.42-2.025.932-.468 2.101-.947 1.169-.484 2.08-.826v-4.479q0-.982-.075-1.828-.07-.852-.352-1.476-.288-.63-.852-.988-.564-.352-1.551-.352-.66 0-1.29.241-.625.247-1.108.837-.479.594-.761 1.576-.282.983-.282 2.434v1.476h-4.746q-.221-.957-.332-1.758-.111-.801-.111-1.587 0-1.894.65-3.345.65-1.451 1.818-2.434 1.17-.987 2.796-1.49 1.623-.505 3.567-.505 2.53 0 4.207.555 1.672.554 2.665 1.662.997 1.103 1.405 2.776.403 1.672.403 3.914v25.36h-4.624l-.444-2.902q-1.007 1.451-2.69 2.363-1.688.907-3.849.907Zm2.75-4.796q.792 0 1.542-.403.746-.408 1.265-.998v-10.604q-.494.197-1.108.469-.615.272-1.325.715-.665.418-1.305 1.007-.64.59-1.144 1.401-.504.811-.81 1.834-.308 1.022-.308 2.277 0 1.94.76 3.123.761 1.179 2.434 1.179Zm15.304 4.428v-33.874h4.55l.543 3.446q1.033-1.92 2.373-2.876 1.34-.963 2.74-.963 2.68 0 3.96 1.648 1.28 1.652 1.28 4.947 0 .418-.06.997-.061.575-.172 1.204-.11.625-.272 1.255-.161.624-.333 1.143h-4.327v-3.148q0-1.033-.136-1.698t-.358-1.068q-.221-.408-.513-.57-.298-.155-.64-.155-.74 0-1.365.478-.63.479-1.048 1.34v27.894h-6.222Zm27.278.368q-4.277 0-6.53-3.516-2.251-3.517-2.251-10.726v-6.393q0-3.224.468-5.526.469-2.297 1.24-3.859.776-1.562 1.773-2.474.997-.911 2.055-1.39 1.058-.479 2.091-.615 1.033-.136 1.894-.136 1.718 0 3.149.459 1.425.453 2.458 1.375 1.033.922 1.597 2.323.57 1.405.57 3.3 0 1.178-.111 2.03-.111.846-.308 1.632h-4.972v-1.129q0-2.559-.6-4-.604-1.435-1.98-1.435-.765 0-1.33.352-.563.358-.946 1.22-.383.86-.565 2.312-.186 1.45-.186 3.642v9.617q0 2.212.146 3.763.151 1.552.52 2.52.367.971.981 1.415.615.443 1.527.443.468 0 .912-.232.438-.237.77-.776.333-.544.545-1.44.206-.897.206-2.227v-1.058h5.365v1.305q0 4.82-2.13 7.022-2.127 2.202-6.358 2.202Zm13.53-.368v-44.745h6.222v7.97l-.317 5.808q.685-.962 1.486-1.587.801-.63 1.647-1.012.852-.378 1.723-.54.872-.16 1.733-.16 2.978 0 4.59 2.08 1.612 2.076 1.612 6.237v25.95h-6.227v-25.729q0-2.241-.685-3.113-.69-.871-2.02-.871-.932 0-1.88.624-.946.63-1.662 1.733v27.355h-6.221Z"/><path fill="#16bffe" font-size="100" letter-spacing="60" font-family="Fjalla One" data-uid="o_en9hmkae2_24" d="M372.901 286.143v-34.395h5.213v30.286h7.109v4.11H372.9Zm37.81 0 6.344-34.395h5.997l6.366 34.395h-5.276l-.944-6.164h-6.282l-.91 6.164h-5.296Zm6.809-10.086h5.074l-2.415-17.138h-.223l-2.436 17.138Zm39.968 10.086v-34.395h5.276q1.166 0 2.415.083 1.25.077 2.437.34 1.187.264 2.256.778 1.062.514 1.86 1.374.798.868 1.27 2.145.472 1.285.472 3.075v1.673q0 1.368-.395 2.513-.389 1.152-1.034 2.027-.646.875-1.472 1.45-.826.57-1.694.771v.167q2.562.458 3.86 2.422 1.298 1.965 1.298 5.026v1.75q0 1.874-.41 3.255-.416 1.381-1.159 2.353-.743.979-1.77 1.603-1.027.625-2.256.98-1.229.346-2.617.478-1.395.132-2.86.132h-5.477Zm5.11-19.672h1.006q1.048 0 1.916-.25.867-.257 1.478-.791.618-.535.951-1.389.326-.853.326-2.061v-1.41q0-1.207-.236-2.137-.243-.923-.798-1.569-.555-.646-1.45-.979-.896-.333-2.187-.333h-1.007v10.919Zm0 16.049h1.492q1.048 0 1.902-.271.853-.27 1.471-.847.611-.576.944-1.458.333-.888.333-2.096v-2.68q0-1.207-.243-2.144-.236-.937-.79-1.569-.556-.639-1.445-.965-.881-.333-2.172-.333h-1.493v12.363Z"/></svg>